<?xml version="1.0" standalone="no"?>
<!DOCTYPE svg PUBLIC "-//W3C//DTD SVG 1.1//EN" "http://www.w3.org/Graphics/SVG/1.1/DTD/svg11.dtd" >
<svg xmlns="http://www.w3.org/2000/svg">
<metadata>
Created by FontForge 20120731 at Wed Mar 29 16:18:21 2017
 By admin
</metadata>
<defs>
<font id="iconfont" horiz-adv-x="1024" >
  <font-face 
    font-family="iconfont"
    font-weight="500"
    font-stretch="normal"
    units-per-em="1024"
    panose-1="2 0 6 3 0 0 0 0 0 0"
    ascent="896"
    descent="-128"
    x-height="792"
    bbox="0 -128 2159 896"
    underline-thickness="0"
    underline-position="0"
    unicode-range="U+0078-E7CE"
  />
<missing-glyph 
 />
    <glyph glyph-name=".notdef" 
 />
    <glyph glyph-name=".notdef" 
 />
    <glyph glyph-name=".null" horiz-adv-x="0" 
 />
    <glyph glyph-name="nonmarkingreturn" horiz-adv-x="341" 
 />
    <glyph glyph-name="x" unicode="x" horiz-adv-x="1001" 
d="M281 543q-27 -1 -53 -1h-83q-18 0 -36.5 -6t-32.5 -18.5t-23 -32t-9 -45.5v-76h912v41q0 16 -0.5 30t-0.5 18q0 13 -5 29t-17 29.5t-31.5 22.5t-49.5 9h-133v-97h-438v97zM955 310v-52q0 -23 0.5 -52t0.5 -58t-10.5 -47.5t-26 -30t-33 -16t-31.5 -4.5q-14 -1 -29.5 -0.5
t-29.5 0.5h-32l-45 128h-439l-44 -128h-29h-34q-20 0 -45 1q-25 0 -41 9.5t-25.5 23t-13.5 29.5t-4 30v167h911zM163 247q-12 0 -21 -8.5t-9 -21.5t9 -21.5t21 -8.5q13 0 22 8.5t9 21.5t-9 21.5t-22 8.5zM316 123q-8 -26 -14 -48q-5 -19 -10.5 -37t-7.5 -25t-3 -15t1 -14.5
t9.5 -10.5t21.5 -4h37h67h81h80h64h36q23 0 34 12t2 38q-5 13 -9.5 30.5t-9.5 34.5q-5 19 -11 39h-368zM336 498v228q0 11 2.5 23t10 21.5t20.5 15.5t34 6h188q31 0 51.5 -14.5t20.5 -52.5v-227h-327z" />
    <glyph glyph-name="renovate" unicode="&#xe600;" 
d="M748 800h149q12 0 20.5 9t8.5 21.5t-8.5 21t-20.5 8.5h-298v-298q0 -13 8.5 -21.5t21 -8.5t21 8.5t8.5 21.5v212q117 -47 193 -153.5t76 -235.5q0 -113 -55.5 -209.5t-151.5 -152.5t-209 -56t-209 56t-152 152.5t-56 209.5q0 158 100 276t256 139h30q12 0 21 9t9 21.5
t-9 21t-21 8.5h-30q-117 -14 -212.5 -81t-149.5 -170.5t-54 -223.5q0 -97 38 -185.5t102 -152.5t152 -101.5t184.5 -37.5t185 37.5t152 101.5t101.5 152.5t38 185.5q0 127 -66 238.5t-173 176.5z" />
    <glyph glyph-name="search" unicode="&#xe604;" 
d="M961 -20l-272 272q86 100 86 231q0 97 -47.5 178.5t-129.5 129.5t-178.5 48t-178.5 -48t-129.5 -129.5t-47.5 -178t47.5 -178.5t129.5 -129.5t178 -47.5q115 0 208 67l275 -274zM106 483.5q0 129.5 92 221.5t221.5 92t221.5 -92t92 -221.5t-92 -221.5t-221.5 -92
t-221.5 92t-92 221.5z" />
    <glyph glyph-name="arrow-bottom" unicode="&#xe601;" 
d="M543 134l434 434q14 14 14 33t-13.5 32.5t-32.5 13.5t-33 -14l-401 -401l-398 398q-14 14 -33 14t-32.5 -14t-13.5 -33t13 -32l427 -427l2 -2l2 -2q14 -14 33 -14t32 14z" />
    <glyph glyph-name="liuliangshuchu" unicode="&#xe61b;" 
d="M707 -100q9 0 15.5 6.5t6.5 15.5v466h192v0q9 0 15.5 6.5t6.5 15.5q0 10 -8 16l-408 436q-6 6 -15 6t-15 -6l-409 -436q-10 -11 -4.5 -24.5t19.5 -13.5h193v-466q0 -9 6.5 -15.5t15.5 -6.5h389z" />
    <glyph glyph-name="sql" unicode="&#xe606;" 
d="M823 -104h-613q-55 0 -94.5 38.5t-39.5 92.5v721q0 55 39.5 93.5t94.5 38.5h523l224 -244v-609q0 -54 -39.5 -92.5t-94.5 -38.5v0zM210 857q-46 0 -78.5 -32t-32.5 -77v-721q0 -44 32.5 -76t78.5 -32h613q46 0 78.5 32t32.5 76v600l-211 230h-513zM731 621h-23v251h23
v-251zM939 621h-219v23h219v-23zM590 269q25 28 25 79t-24 79q-9 10 -29.5 19t-36.5 9q-41 0 -66.5 -29.5t-25.5 -77.5t24.5 -77.5t64.5 -29.5q43 0 68 28zM43 512v-379h947v379h-947zM323 235q-25 -18 -69 -18q-16 0 -36.5 4t-30.5 11v38q12 -11 32.5 -17.5t38.5 -6.5
q55 0 55 39q0 11 -6 19.5t-16.5 15.5t-38.5 21q-40 19 -52.5 36t-12.5 38q0 33 26.5 52t66.5 19q39 0 57 -10v-36q-24 16 -60 16q-24 0 -39 -10t-15 -28q0 -16 10.5 -26t45.5 -27q39 -18 54 -36.5t15 -40.5q0 -35 -25 -53zM656 153q-12 -3 -30 -3q-24 0 -46 11.5t-60 55.5
q-53 -1 -87 36.5t-34 94.5q0 63 34.5 100.5t94.5 37.5q53 0 86.5 -36.5t33.5 -95.5q0 -52 -23.5 -87t-66.5 -46q22 -23 37.5 -31.5t34.5 -8.5q15 0 26 4v-32zM858 221h-138v260h34v-230h104v-30zM99 133h-23v378h23v-378zM957 134h-23v379h23v-379z" />
    <glyph glyph-name="spark" unicode="&#xe659;" 
d="M946 605q-9 16 -26 15l-287 -15l-173 251q-11 15 -28 12t-21 -21l-59 -289q-164 -48 -273 -80q-17 -5 -18.5 -23t13.5 -28q42 -27 131 -85.5t108 -70.5l83 55q-41 27 -119 78q-9 6 -8 15q1 10 10 13l151 44q20 96 33 160q2 10 12 12q9 1 15 -7l96 -139l159 8q9 1 14 -8
t0 -17l-92 -130l65 -155q4 -9 -3 -17q-6 -7 -15 -3l-112 42l35 -113l227 -87q16 -6 28 7t4 29q-20 50 -49.5 120t-49 115.5l-19.5 45.5l167 234q10 16 1 32zM546 224l-103 -89q-7 -7 -16 -2q-8 4 -9 15l-2 126l-91 -59l4 -252q0 -18 15.5 -26t29.5 3l204 179z" />
    <glyph glyph-name="enable" unicode="&#xe64d;" 
d="M513 269q-11 0 -19 8t-8 20v349q0 11 8 19t19 8t19 -8t8 -19v-349q0 -12 -8 -20t-19 -8zM513 93q-11 0 -19 8t-8 19v2q0 11 8 19t19 8t19 -8t8 -19v-2q0 -11 -8 -19t-19 -8zM513 -80q-94 0 -181 37q-83 35 -147 99t-100 147q-36 87 -36 181t36 181q36 83 100 147t147 99
q87 37 181 37t180 -37q84 -35 148 -99t99 -147q37 -87 37 -181t-37 -181q-35 -83 -99 -147t-148 -99q-86 -37 -180 -37zM513 793q-82 0 -157 -31t-133 -89t-88.5 -132.5t-30.5 -156.5t30.5 -156.5t88.5 -132.5t133 -89t157 -31t156.5 31t132.5 89t89 132.5t31 156.5
t-31 156.5t-89 132.5t-132.5 89t-156.5 31z" />
    <glyph glyph-name="preservation" unicode="&#xe605;" 
d="M787 861h-753v-955h955v752zM737 827v-379h-449v379h449zM957 -61h-890v889h189v-412h514v412h4l183 -184v-705v0zM695 778h-97v-255h97v255zM662 556h-31v189h31v-189zM477 66h401v-32h-401v32zM477 170h401v-32h-401v32z" />
    <glyph glyph-name="arrow2-bottom" unicode="&#xe609;" 
d="M512 122l480 524h-960z" />
    <glyph glyph-name="close" unicode="&#xe612;" 
d="M968 -72q-14 -15 -34.5 -15t-34.5 15l-844 843q-14 15 -14 35.5t14 34.5v0q15 15 35.5 15t34.5 -15l843 -843q15 -15 15 -35.5t-15 -34.5v0zM55 -72q-14 14 -14 34.5t14 35.5l844 843q14 15 34.5 15t34.5 -15v0q15 -14 15 -34.5t-15 -35.5l-843 -843q-14 -15 -34.5 -15
t-35.5 15v0z" />
    <glyph glyph-name="top" unicode="&#xe60b;" 
d="M874 704h-724q-17 0 -29 12t-12 29v41q0 16 12 28t29 12h724q17 0 29 -12t12 -28v-41q0 -17 -12 -29t-29 -12zM992 216h-232v-232h-496v232h-232l480 480z" />
    <glyph glyph-name="fail" unicode="&#xe613;" 
d="M512 880q-101 0 -193 -39.5t-158.5 -106t-105.5 -158.5t-39 -193t39 -192.5t105.5 -158t158.5 -106t193 -39.5t193 39.5t158.5 106t105.5 158t39 192.5t-39 193t-105.5 158.5t-158.5 106t-193 39.5v0zM709 235q10 -10 10 -24.5t-10 -24.5t-24.5 -10t-24.5 10l-148 148
l-147 -148q-11 -10 -25 -10t-24.5 10t-10.5 24.5t10 24.5l148 148l-148 148q-10 10 -10 24.5t10.5 24.5t24.5 10t25 -10l147 -148l148 148q10 10 24.5 10t24.5 -10t10 -24.5t-10 -24.5l-148 -148zM709 235z" />
    <glyph glyph-name="settings-8" unicode="&#xe614;" 
d="M990 305v158q-46 9 -102 17q-14 54 -42 102q35 46 60 84l-112 112q-38 -25 -84 -60q-48 28 -102 42q-8 57 -17 102h-158q-9 -45 -17 -102q-54 -14 -102 -42q-46 35 -84 60l-112 -112q25 -38 60 -84q-28 -48 -42 -102q-57 -8 -102 -17v-158q45 -9 102 -17q14 -54 42 -102
q-35 -46 -60 -84l112 -112q38 25 84 60q48 -28 102 -42q8 -57 17 -102h158q9 45 17 102q54 14 102 42q45 -34 84 -60l112 112q-26 39 -60 84q28 48 42 102q56 8 102 17zM512 145q-99 0 -169 70t-70 169t70 169t169 70t169 -70t70 -169t-70 -169t-169 -70z" />
    <glyph glyph-name="sign" unicode="&#xe63b;" 
d="M512 864q-98 0 -186.5 -38t-153 -102.5t-102.5 -153t-38 -186.5t38 -186.5t102.5 -153t153 -102.5t186.5 -38t186.5 38t153 102.5t102.5 153t38 186.5t-38 186.5t-102.5 153t-153 102.5t-186.5 38zM512 649q25 0 42.5 -18t17.5 -43t-17.5 -42.5t-42.5 -17.5t-42.5 17.5
t-17.5 42.5t17.5 43t42.5 18zM564 119h-43q-17 0 -31 12t-14 26v245h-16q-16 0 -28 11.5t-12 28.5t12 28.5t28 11.5h51q35 -2 35 -27v-255h18q16 0 28 -12t12 -28.5t-12 -28.5t-28 -12z" />
    <glyph glyph-name="shell" unicode="&#xe60f;" horiz-adv-x="1195" 
d="M32 745v-728q0 -47 33 -80.5t80 -33.5h894q47 0 80.5 33.5t33.5 80.5v733q0 47 -33.5 80.5t-80.5 33.5h-889q-49 0 -83.5 -34.5t-34.5 -84.5zM1060 1q-13 -16 -28 -23t-23 -7l-8 1h-813q-36 0 -61 25.5t-25 60.5v652q0 35 25 60.5t61 25.5h808q36 0 61 -25.5t25 -60.5
v-648q3 -31 -22 -61v0zM947 136h-312v102h312v-102zM551 416l-251 251q-12 12 -29.5 12t-30 -12.5t-12.5 -29.5t13 -30l221 -221l-220 -220q-12 -12 -12 -29.5t12 -29.5t29.5 -12t30.5 12l249 249q12 13 12 30t-12 30z" />
    <glyph glyph-name="arrow2-top" unicode="&#xe60a;" 
d="M512 635l-480 -524h960z" />
    <glyph glyph-name="decision" unicode="&#xe615;" 
d="M875 6h-88q-52 0 -83 30t-31 90v100q0 51 32 86t82 35h35q-16 18 -40 18h-500q-25 0 -41 -19q48 -1 79.5 -35.5t31.5 -84.5v-100q0 -51 -32 -85.5t-82 -34.5h-87q-50 0 -85.5 35.5t-35.5 85.5v98q0 50 35.5 86t85.5 36h17q11 37 42.5 60.5t71.5 23.5h190v53h-43
q-52 0 -84.5 27.5t-32.5 76.5v161q0 50 33.5 85t83.5 35h153q49 0 80.5 -34.5t31.5 -85.5v-141q0 -51 -31.5 -87.5t-80.5 -36.5h-49v-53h249q40 0 72 -24.5t43 -62.5q42 -8 70 -41.5t28 -77.5v-98q0 -50 -35.5 -86t-84.5 -36v1z" />
    <glyph glyph-name="execute" unicode="&#xe6a8;" 
d="M512 -96q-198 0 -339 141t-141 339t141 339t339 141t339 -141t141 -339t-141 -339t-339 -141zM512 818q-88 0 -168.5 -34.5t-138.5 -92.5t-92.5 -138.5t-34.5 -168.5t34.5 -168.5t92.5 -138.5t138.5 -92.5t168.5 -34.5t168.5 34.5t138.5 92.5t92.5 138.5t34.5 168.5
t-34.5 168.5t-92.5 138.5t-138.5 92.5t-168.5 34.5zM788 415q-397 224 -401 225q-46 7 -48 -47l-1 -1q2 -436 3 -440q8 -20 28.5 -23.5t37.5 7.5l1 -1q368 213 371 216q42 34 9 64z" />
    <glyph glyph-name="success" unicode="&#xe63d;" 
d="M512 -96q-198 0 -339 141t-141 339t141 339t339 141t339 -141t141 -339t-141 -339t-339 -141v0zM742 511q-10 10 -24 10t-24 -10l-250 -253l-111 114q-10 10 -24 10.5t-24 -9.5t-10.5 -24.5t9.5 -24.5l135 -138v-1h1q1 -2 7 -5q1 0 2 -1t2 -1q6 -3 12.5 -3t13.5 3l1.5 1
l1.5 1q6 3 8 5v0v0l275 278q10 10 9.5 24t-10.5 24v0z" />
    <glyph glyph-name="gexingxuqiu" unicode="&#xe678;" 
d="M115 0v779q0 22 8 44q19 49 68 49h622q36 0 61 -24q25 -25 25 -69v-781q0 -22 -11 -45q-24 -46 -81 -46h-617q-19 0 -38 13q-37 23 -37 80v0zM870 779q0 32 -16.5 48t-40.5 15v0h-622q-13 0 -22.5 -6.5t-14 -14.5t-7 -19t-3 -15.5t-0.5 -7.5v-779q0 -17 4.5 -29.5
t10.5 -18.5t13.5 -10t11.5 -4.5t6 -0.5h617q17 0 30 6.5t19 14.5t9.5 18t4 14.5t0.5 7.5v781zM410 403q0 5 3 9l164 222q9 12 21 3.5t3 -20.5l-158 -214l154 -241q8 -13 -4.5 -21t-20.5 5l-160 249q-2 4 -2 8z" />
    <glyph glyph-name="add" unicode="&#xe60c;" 
d="M849 721q-68 67 -155 103t-182.5 36t-182.5 -36t-155 -103.5t-104 -154t-36 -182t36 -182.5t104 -154t155 -103t182.5 -36t182.5 36t155 103t104 154t36 182.5t-36 182t-104 154.5v0zM750 350h-204v-204q0 -15 -10 -25t-24.5 -10t-24.5 10t-10 25v204h-204q-14 0 -24 10
t-10 24t10 24t24 10h204v205q0 14 10 24t24.5 10t24.5 -10t10 -24v-205h204q14 0 24 -10t10 -24t-10 -24t-24 -10v0zM750 350z" />
    <glyph glyph-name="selected" unicode="&#xe670;" 
d="M871 874h-717q-55 0 -93 -38t-38 -92v-718q0 -54 38 -92t93 -38h717q54 0 92.5 38t38.5 92v718q0 54 -38.5 92t-92.5 38zM840 536l-385 -392q-10 -10 -23 -10t-23 10l-203 207q-10 10 -10 23.5t9.5 23t22.5 9.5t23 -10l181 -184l362 369q10 9 23 9t22.5 -9.5t9.5 -23
t-9 -22.5z" />
    <glyph glyph-name="aggregate" unicode="&#xe641;" 
d="M754 432h236q-17 169 -139 291t-291 139v-236q74 -14 127 -67t67 -127v0zM464 626v236q-169 -17 -291 -139t-139 -291h236q14 74 67 127t127 67v0zM560 142v-236q171 17 292.5 139t139.5 293h-235q-16 -75 -69.5 -128.5t-127.5 -67.5v0zM270 336h-236q17 -171 139 -292.5
t293 -139.5v235q-75 16 -128.5 69.5t-67.5 127.5v0zM270 336z" />
    <glyph glyph-name="time" unicode="&#xe607;" 
d="M279 640h24q14 0 18.5 4.5t4.5 18.5v163q0 14 -4.5 18.5t-18.5 4.5h-24q-14 0 -18.5 -4.5t-4.5 -18.5v-163q0 -23 23 -23zM721 640h24q14 0 18.5 4.5t4.5 18.5v163q0 14 -4.5 18.5t-18.5 4.5h-24q-14 0 -18.5 -4.5t-4.5 -18.5v-163q0 -23 23 -23zM884 756h-69v-46h69
q28 0 49 -21t21 -49v-47l-884 3v44q0 28 21 49t49 21h69v46h-69q-54 0 -85.5 -32.5t-31.5 -83.5v-628q0 -93 117 -93h744q56 0 86.5 20t30.5 73v628q-6 53 -35.5 84.5t-81.5 31.5v0zM884 -35h-744q-70 0 -70 47v512h884v-512q0 -31 -16 -39t-54 -8v0zM372 756h280v-46h-280
v46zM531 456q-18 0 -29 -10.5t-16 -23.5t-19 -26.5t-36 -18.5l-21 -7q-6 -1 -14.5 -2.5t-11 -2t-6.5 -2t-5 -4t-2 -6.5t-1 -11q0 -17 7 -22.5t19 -5.5h93v-228q0 -28 6 -40.5t29 -12.5q22 0 28.5 13.5t6.5 39.5v331q0 39 -28 39v0v0zM531 456z" />
    <glyph glyph-name="submit" unicode="&#xe668;" 
d="M207 624h501v-44h-501v44zM207 406h196v-44h-196v44zM577 24l-189 214l30 30l159 -179l356 354l31 -31zM796 100v-109q0 -18 -13 -30.5t-31 -12.5h-589q-18 0 -31 12.5t-13 30.5v786q0 18 13 30.5t31 12.5h589q18 0 31 -12.5t13 -30.5v-328h43v328q0 36 -25.5 61.5
t-61.5 25.5h-589q-36 0 -61.5 -25.5t-25.5 -61.5v-786q0 -36 25.5 -61.5t61.5 -25.5h589q36 0 61.5 25.5t25.5 61.5v109h-43z" />
    <glyph glyph-name="schema" unicode="&#xe638;" 
d="M576 148h-257q-9 0 -14.5 -6.5t-5.5 -14.5q0 -9 6 -15t14 -6h257q9 0 15 6.5t6 14.5q0 9 -5.5 15t-15.5 6zM319 620h108q9 0 15 6.5t6 14.5q0 9 -6.5 15t-14.5 6h-108q-9 0 -14.5 -6.5t-5.5 -14.5q0 -9 5.5 -15t14.5 -6zM684 856h-472q-36 0 -60.5 -25t-24.5 -60v-770
q0 -36 25 -60.5t60 -24.5h600q36 0 60.5 25t24.5 60v621zM856 -1q0 -18 -12.5 -31t-31.5 -13h-600q-18 0 -31 12.5t-13 31.5v770q0 18 12.5 31t31.5 13h385v-214q0 -17 12.5 -30t30.5 -13h214v-557h2zM640 597v216h21l193 -214h-214v-2zM705 320h-386q-9 0 -14.5 -6.5
t-5.5 -14.5q0 -9 6 -15t14 -6h386q9 0 14.5 6.5t5.5 14.5t-5.5 14.5t-14.5 6.5zM299 469q0 -9 6 -15t14 -6h386q9 0 14.5 6.5t5.5 14.5q0 9 -6 15t-14 6h-386q-9 1 -14.5 -5t-5.5 -16z" />
    <glyph glyph-name="event" unicode="&#xe63f;" 
d="M375 505v171q0 47 33.5 80t80.5 33t80.5 -33t33.5 -80v-171q42 29 66.5 73.5t24.5 97.5q0 85 -60 144.5t-145 59.5t-145 -59.5t-60 -144.5q0 -53 24.5 -97.5t66.5 -73.5zM823 295l-206 103q-12 5 -25 5h-34v273q0 28 -20 48t-48.5 20t-48.5 -20t-20 -48v-489l-156 33
l-11 1q-21 0 -36 -15l-36 -36l225 -225q20 -20 48 -20h309q25 0 43.5 16.5t22.5 41.5l34 240q1 6 1 9q0 21 -11.5 38t-30.5 25z" />
    <glyph glyph-name="zhuce-copy-copy" unicode="&#xe603;" 
d="M778 253q-46 34 -98 56q30 18 55 44q92 92 92 222.5t-92 223t-223 92.5t-223 -92.5t-92 -223t92 -222.5q26 -26 56 -45v0h-1h1q-73 -29 -131 -81q-61 -55 -98.5 -127.5t-47.5 -153.5q-1 -14 7.5 -24.5t22.5 -12.5h3q13 0 22.5 8t10.5 21q17 143 124 239q109 98 255 98
q125 0 226 -75q11 -8 24.5 -6t21.5 13t6 24.5t-13 21.5zM336 399q-73 73 -73 176.5t73 176.5t176 73t176 -73t73 -176.5t-73 -176.5q-46 -46 -109 -63q-38 -11 -78 -9q-29 1 -56 9v0v0q-63 17 -109 63zM989 80h-85v85q0 14 -10 23.5t-23.5 9.5t-23.5 -9.5t-10 -23.5v-85h-85
q-13 0 -23 -9.5t-10 -23.5t10 -23.5t23 -9.5h85v-85q0 -14 10 -23.5t23.5 -9.5t23.5 9.5t10 23.5v85h85q13 0 23 9.5t10 23.5t-10 23.5t-23 9.5z" />
    <glyph glyph-name="transform" unicode="&#xe61e;" 
d="M822 519h154q9 0 12 16q2 6 0 12.5t-4 10.5l-2 4l-193 274q-2 3 -4.5 7t-13 11t-21.5 7t-20 -4.5t-12 -8.5l-3 -5l-189 -275q0 -2 -1 -5.5t-2.5 -12.5t0.5 -15q2 -7 5.5 -11t6.5 -4l3 -1h145v-268q-1 -8 -3.5 -22.5t-11.5 -51t-20 -64t-30 -50.5t-41 -23q5 0 13.5 0.5
t34 5t49 12.5t51.5 24.5t48.5 38.5t34.5 57.5t14 79.5v261zM199 245h-155q-9 -3 -12 -20q-1 -10 6 -21q194 -273 194 -274q1 -3 4 -7.5t13 -11.5t22 -7q11 0 20 4.5t12 9.5l3 4l188 276q1 1 2 3.5t2.5 10t-1.5 13.5q-2 9 -5.5 14t-6.5 6h-2h-145v270q1 8 3.5 22.5t11.5 51
t20 64t30 50.5t41 23q-5 0 -14 -0.5t-34.5 -5t-48.5 -12.5t-51.5 -24.5t-48.5 -38.5t-34 -57.5t-14 -79.5v-263z" />
    <glyph glyph-name="input" unicode="&#xe687;" 
d="M980.5 337q-7.5 0 -12.5 -5t-5 -12v-272q0 -49 -35 -84t-84 -35h-676q-49 0 -84 35t-35 84v676q0 49 35 84t84 35h396q7 0 12 5t5 12.5t-5 12.5t-12 5h-396q-63 0 -108.5 -45t-45.5 -109v-676q0 -64 45.5 -109t108.5 -45h676q64 0 109 45t45 109v272q0 7 -5 12t-12.5 5z
M351 329l102 -102q10 -10 24 -10t24 10l382 381q10 10 10 24.5t-10 24.5l-102 102q-10 10 -24 10t-24 -10l-382 -382q-10 -10 -10 -24t10 -24zM1003 777l-102 102q-10 10 -24 10t-24 -10l-44 -44q-10 -10 -10 -24t10 -24l102 -102q10 -10 24 -10t24 10l44 44q10 10 10 24
t-10 24zM322 319q-5 4 -8 5q-6 3 -11 -2t-5 -12v-120q0 -7 5 -11.5t11 -4.5h120q7 0 12 5t3 11l-7 8z" />
    <glyph glyph-name="workflow" unicode="&#xe757;" 
d="M767 762h-98q-15 52 -58.5 85t-98.5 33t-98.5 -33t-58.5 -85h-98q-75 0 -128.5 -53.5t-53.5 -128.5v-510q0 -75 53.5 -128.5t128.5 -53.5h510q75 0 128.5 53.5t53.5 128.5v510q0 75 -53.5 128.5t-128.5 53.5zM894 70q0 -53 -37 -90t-90 -37h-510q-53 0 -90 37t-37 90v510
q0 52 37 89.5t90 37.5h98q18 0 32.5 11t19.5 29q10 34 39 56t66 22t66 -22t39 -56q5 -18 19.5 -29t32.5 -11h98q53 0 90 -37.5t37 -89.5v-510zM449 716q0 -26 18.5 -44t44.5 -18t44.5 18t18.5 44t-18.5 44.5t-44.5 18.5t-44.5 -18.5t-18.5 -44.5zM772 450l-166 -158l-187 92
l-200 -178q-8 -7 -9 -18.5t7 -19.5q8 -10 20 -10q11 0 19 7l172 154l188 -93l193 184q8 8 8.5 19t-7.5 19.5t-19 8.5t-19 -7z" />
    <glyph glyph-name="computer" unicode="&#xe704;" 
d="M951 789q32 0 52.5 -20.5t20.5 -52.5v-548q0 -32 -21 -53q-20 -21 -52 -21h-402v-38l240 -35q20 -4 15.5 -20t-18.5 -16h-2l-254 36l-253 -36q-16 -5 -21 16q-5 16 16 20l240 35v39h-439q-32 0 -52.5 20.5t-20.5 52.5v548q0 32 20.5 52.5t52.5 20.5h878zM987 716
q0 37 -36 37h-878q-36 0 -36 -37v-548q0 -37 36 -37h878q36 0 36 37v548v0z" />
    <glyph glyph-name="unknown" unicode="&#xe7c9;" 
d="M512 -106q99 0 189 38.5t155 103.5t103.5 155t38.5 189t-38.5 189t-103.5 155t-155 103.5t-189 38.5t-189 -38.5t-155 -103.5t-103.5 -155t-38.5 -189t38.5 -189t103.5 -155t155 -103.5t189 -38.5zM507.5 91q-14.5 0 -24.5 10.5t-10 25t10 24.5t24.5 10t25 -10
t10.5 -24.5t-10.5 -25t-25 -10.5zM334 499q9 76 55 116t121 40q80 0 127 -43t47 -105q0 -35 -16.5 -65t-64.5 -73q-33 -29 -43 -43t-15 -31.5t-5 -57.5v0v-1q0 -13 -9.5 -22.5t-23 -9.5t-22.5 9.5t-9 22.5q0 1 -0.5 5t-0.5 9v7q0 39 11 68q9 21 27 43q13 16 47.5 46.5
t45 48.5t10.5 40q0 39 -30.5 68t-74.5 29q-42 0 -71 -26q-28 -26 -37 -82q-1 -14 -11 -23t-23 -9q-15 0 -25 10t-10 24v5v0z" />
    <glyph glyph-name="output" unicode="&#xe61c;" 
d="M511 814l-250 -251h175v-295h148v295h178zM859 107h-704v447h-135v-587h974v587h-135v-447zM422 208h180v-41h-180v41z" />
    <glyph glyph-name="baojingshuru" unicode="&#xe61f;" 
d="M511 182l-250 250h175v295h148v-295h178zM859 107h-704v447h-135v-587h974v587h-135v-447zM422 829h180v-41h-180v41z" />
    <glyph glyph-name="tishi1" unicode="&#xe620;" 
d="M209 715q-10 9 -23 9t-22.5 -9t-9.5 -22.5t10 -22.5l45 -45q9 -10 22 -10t22.5 9.5t9.5 22.5t-9 23zM814 715l-45 -45q-9 -10 -9 -23t9 -22.5t22.5 -9.5t22.5 10l45 45q10 9 10 22.5t-9.5 22.5t-23 9t-22.5 -9zM129 463h-64q-13 0 -22.5 -9.5t-9.5 -22.5t9.5 -22.5
t22.5 -9.5h64q13 0 22.5 9.5t9.5 22.5t-9.5 22.5t-22.5 9.5zM958 463h-64q-13 0 -22.5 -9.5t-9.5 -22.5t9.5 -22.5t22.5 -9.5h64q13 0 22 9.5t9 22.5t-9 22.5t-22 9.5zM480 829v-64q0 -13 9 -22t22.5 -9t22.5 9t9 22v64q0 13 -9 22.5t-22.5 9.5t-22.5 -9.5t-9 -22.5z
M448 -71q0 -10 9 -17t22 -7h64q13 0 22.5 7t9.5 17t-9.5 17t-22.5 7h-64q-13 0 -22 -7t-9 -17zM384 24.5q0 -9.5 9.5 -16.5t22.5 -7h191q13 0 22.5 7t9.5 16.5t-9.5 16.5t-22.5 7h-191q-13 0 -22.5 -7t-9.5 -16.5zM511.5 675q-118.5 0 -202.5 -84t-84 -203t84 -203
t202.5 -84t202.5 84t84 203t-84 203t-202.5 84zM511.5 149q-98.5 0 -168.5 70t-70 169t70 168.5t168.5 69.5t168.5 -69.5t70 -168.5t-70 -169t-168.5 -70z" />
    <glyph glyph-name="cache" unicode="&#xe62a;" 
d="M540 718q-11 12 -27.5 12t-28 -11.5t-11.5 -28t11.5 -28t28 -11.5t28 11.5t11.5 28t-12 27.5v0v0zM522 866q72 -72 103 -146q30 -75 30 -178q0 -46 -5 -107l104 -115q4 -6 3 -13l-47 -175q0 -4 -3 -6q-4 -4 -9 -4h-37q-8 0 -12 7l-55 104h-163l-55 -104q-1 -2 -2 -3
q-5 -4 -10 -4h-37q-10 0 -12 10l-47 175q-1 7 3 13l104 115q-5 61 -5 107q0 109 28.5 178.5t104.5 145.5q4 4 9 4q6 0 10 -4v0v0zM522 866zM511 43l-27 176h-25l52 -337l52 337h-25z" />
    <glyph glyph-name="arrow-dialog" unicode="&#xe60d;" horiz-adv-x="1026" 
d="M897 864h-769q-40 0 -68 -28t-28 -68v-767q0 -40 28 -68t68 -28h769q40 0 68 28t28 68v767q0 40 -28 68t-68 28zM512 137l-286 382h574z" />
    <glyph glyph-name="hive" unicode="&#xe64e;" 
d="M374 573v79q0 9 7 13q23 13 68.5 39.5t68.5 39.5q6 4 13 0q63 -37 137 -82q7 -3 7 -11v-80v-79q0 -8 -7 -12l-138 -81q-6 -3 -12 0l-138 81q-6 3 -6 12v81zM145 201v78q0 10 7 14q23 13 68.5 39.5t68.5 39.5q6 3 13 0q63 -37 138 -82q6 -4 6 -12v-79v-79q0 -9 -6 -12
l-139 -81q-6 -4 -12 0l-138 81q-6 3 -6 12v81zM568 185v79q0 9 7 13q23 13 68.5 39.5t68.5 39.5q7 3 13 0q63 -37 138 -82q6 -3 6 -11v-80t1 -79q0 -9 -7 -12l-138 -81q-7 -4 -12 0l-139 81q-6 3 -6 12v81zM68 204v127q0 11 9 16q34 20 102 61t102 61q9 6 9 16v108t-1 107
q0 10 8 15q89 51 220 128q7 4 15 -1q147 -86 220 -129q7 -4 7 -13v-251q0 -12 9 -17l174 -102q8 -5 8 -14v-257q0 -10 -7 -13q-74 -43 -221 -130q-7 -4 -15 0q-26 16 -97.5 58t-109.5 64q-10 7 -21 0q-58 -36 -174 -106q-9 -5 -17 0q-70 43 -212 128q-8 5 -8 15v129z
M907 188v103q0 8 -7 12l-174 102q-8 4 -15 0q-119 -70 -179 -105q-8 -4 -8 -13v-201q0 -10 8 -14q25 -14 177 -103q7 -4 14 0q88 52 177 103q7 5 7 13v103zM113 204v-104q0 -8 6 -12l171 -104q6 -4 13 0q22 14 172 104q5 3 5 10v209q0 8 -6 11q-114 69 -171 104q-7 4 -13 0
q-29 -17 -85.5 -51.5t-85.5 -51.5q-6 -4 -6 -12v-103zM333 572v-103q0 -9 8 -13q58 -34 173 -102q8 -4 15 0q25 15 180 105q7 4 7 11v205q0 8 -6 11q-95 55 -179 105q-6 3 -13 0q-59 -35 -178 -105q-7 -4 -7 -13v-50v-51z" />
    <glyph glyph-name="tag" unicode="&#xe658;" 
d="M603 -92q-46 0 -79 33l-459 459q-44 44 -30 104l51 221q7 32 30 54.5t54 29.5l221 51q28 7 56 -1t49 -29l458 -458q33 -33 33 -79.5t-33 -79.5l-271 -272q-33 -33 -80 -33v0zM416 831q-9 0 -18 -2l-221 -51q-22 -5 -38.5 -21.5t-21.5 -38.5l-51 -221q-10 -43 22 -74
l459 -459q22 -23 56 -23t57 23l272 272q23 23 23 56t-23 57l-459 459q-24 23 -57 23zM314 493v0q-36 0 -62 26t-26 62.5t26 62t62.5 25.5t62 -25.5t25.5 -62t-25.5 -62.5t-62.5 -26zM314.5 637q-23.5 0 -40 -16.5t-16.5 -39.5t17 -39q16 -16 39.5 -16t39.5 16t16 39
t-16 39.5t-39.5 16.5z" />
    <glyph glyph-name="release" unicode="&#xe616;" 
d="M1012 722v4l-1 1v3v1v1l-1 1h-1h-1v1l-2 3v0l-1 1v2h-2h-1h-2v1v1h-1v1h-1l-1 1v0v0h-4v1h-6l-1 -1v0v0h-2l-1 -1h-1l-955 -364q-9 -3 -13 -12t-1 -19q5 -10 15 -14l287 -115l29 -164q2 -10 10 -15.5t18 -4.5q7 1 13 8l106 106l216 -87q9 -3 18 0.5t13 12.5l272 635l1 1
v8l1 4v-1zM333 264v0l-231 93l733 280zM382 109v0l-15 91l76 -31zM704 115v0l-320 128l549 406l-229 -534v0z" />
    <glyph glyph-name="flow" unicode="&#xe608;" 
d="M964 153h-57v189q0 33 -24 57t-57 24h-289v194h58q23 0 39 16t16 38v167q0 23 -16 39t-39 16h-166q-23 0 -39 -16t-16 -39v-167q0 -22 16 -38t39 -16h54v-194h-285q-33 0 -57 -24t-24 -57v-189h-57q-23 0 -39 -16t-16 -38v-167q0 -23 16 -38.5t39 -15.5h167q22 0 38 15.5
t16 38.5v167q0 22 -16 38t-38 16h-56v189q0 11 8 19t19 8h285v-216h-54q-23 0 -39 -16t-16 -38v-167q0 -22 16 -38t39 -16h166q23 0 39 16t16 38v167q0 22 -16 38t-39 16h-58v216h289q11 0 19 -8t8 -20v-188h-56q-22 0 -38 -16t-16 -38v-167q0 -23 16 -38.5t38 -15.5h167
q23 0 39 15.5t16 38.5v167q0 22 -16 38t-39 16v0zM429 838h166v-167h-166v167zM227 -68h-167v167h167v-167zM595 -68h-166v167h166v-167v0zM964 -68h-167v167h167v-167zM964 -68z" />
    <glyph glyph-name="sink" unicode="&#xe6b7;" 
d="M694 427l-143 146l168 173l-110 112h366v-375l-113 116zM783 -80h-544q-74 0 -127 54.5t-53 130.5v558q0 76 53 130.5t127 54.5h133l33 -44h-166q-56 0 -96.5 -41.5t-40.5 -99.5v-558q0 -58 40.5 -99t96.5 -41h544q57 0 97.5 41t40.5 99l1 193l43 -40l-1 -153
q0 -76 -53 -130.5t-128 -54.5v0v0zM783 -90h-544q-78 0 -134 57t-56 138v558q0 81 55.5 138t134.5 57h138l48 -65h-186q-52 0 -89 -38t-37 -92v-558q0 -54 37 -92t89 -38h544q53 0 90 38t37 92l2 217l63 -59l-1 -158q0 -82 -57 -140q-56 -55 -134 -55z" />
    <glyph glyph-name="dataset" unicode="&#xe642;" 
d="M237 732h751v-107h-751v107zM237 437h751v-107h-751v107zM237 175h751v-134h-751v134zM33 680v0q0 -30 21 -51t51 -21t51.5 21t21.5 51v0v0q0 30 -21.5 51.5t-51.5 21.5t-51 -21.5t-21 -51.5v0zM33 390v0q0 -30 21 -51.5t51 -21.5t51.5 21.5t21.5 51.5v0v0q0 30 -21.5 51
t-51.5 21t-51 -21t-21 -51v0zM33 99v0q0 -30 21 -51.5t51 -21.5t51.5 21.5t21.5 51.5v0v0q0 30 -21.5 51.5t-51.5 21.5t-51 -21.5t-21 -51.5v0z" />
    <glyph glyph-name="dankuang" unicode="&#xe640;" horiz-adv-x="2202" 
d="M2159 106q0 -24 -17 -41t-42 -17h-846q-21 0 -51 -25.5t-55.5 -50.5t-37.5 -25q-13 0 -41.5 25t-58.5 50.5t-45 25.5h-845q-24 0 -41 17t-17 41v641q0 24 17 41t41 17h1980q25 0 42 -17t17 -41v-641z" />
    <glyph glyph-name="alert" unicode="&#xe679;" 
d="M510.5 863q-97.5 0 -186 -38t-152.5 -102t-102 -152.5t-38 -186t38 -186t102 -152.5t152.5 -101.5t186 -37.5t186 37.5t152.5 101.5t102 152.5t38 186t-38 186t-102 152.5t-152.5 102t-186 38zM510.5 98q-19.5 0 -33.5 14t-14 33.5t14 33.5t33.5 14t33.5 -14t14 -33.5
t-14 -33.5t-33.5 -14zM558 305q0 -20 -14 -34t-33.5 -14t-33.5 14t-14 34v319q0 19 14 33t33.5 14t33.5 -14t14 -33v-319z" />
    <glyph glyph-name="filter" unicode="&#xe683;" 
d="M988 844h-955l409 -478v-273l137 -136v409v0z" />
    <glyph glyph-name="function" unicode="&#xe69e;" 
d="M473 551l-61 -241q-43 -171 -83.5 -247t-94.5 -113q-55 -37 -125 -37q-45 0 -65.5 17t-20.5 40q0 21 17 36.5t46 15.5q23 0 35.5 -12t12.5 -30q0 -17 -8 -25t-8 -10l3 -4q3 -2 7 -2q16 0 27 9q27 25 41 60q9 24 36 126l106 417h-72l17 61q39 -1 56.5 9.5t37.5 46.5
q57 106 120.5 152t142.5 46q50 0 72.5 -19.5t22.5 -50.5q0 -26 -15 -42t-38 -16q-20 0 -33.5 13t-13.5 31q0 13 8.5 27.5t8.5 19.5q0 6 -4 9.5t-10 3.5q-31 0 -64 -37q-53 -62 -85 -193h76l-19 -61h-73v0zM590 520l151 26q41 -65 58 -143q43 64 65 89q29 33 47.5 43.5
t39.5 10.5q25 0 37.5 -13t12.5 -35q0 -21 -12.5 -34.5t-32.5 -13.5q-14 0 -31.5 5t-24.5 5q-19 0 -35 -12q-23 -19 -56 -77q37 -130 59 -159q13 -16 27 -16q11 0 19 5q13 9 39 46l16 -9q-38 -62 -75 -87q-28 -20 -55 -20q-28 0 -46 12q-18 13 -33 41q-14 28 -34 90
q-51 -65 -79 -95q-29 -30 -48.5 -39t-40.5 -9q-23 0 -36 13t-13 34q0 22 14 36.5t37 14.5q11 0 26 -7q22 -11 31 -11q13 0 23 6q13 6 33 28q12 13 45 57q-42 155 -65 186q-15 19 -38 19q-11 0 -29 -4z" />
    <glyph glyph-name="tingyong" unicode="&#xe6ce;" 
d="M515 -119q-103 0 -196.5 40t-161 108t-107.5 161.5t-40 196t40 196t107.5 161t161 107.5t196.5 40t196 -40t161 -107.5t108 -161t40 -196t-40 -196t-108 -161.5t-161 -108t-196 -40v0zM515 871q-99 0 -188.5 -38.5t-154.5 -103.5t-103.5 -154.5t-38.5 -188t38.5 -188.5
t103.5 -155t154.5 -103.5t188.5 -38.5t188.5 38.5t154.5 103.5t103.5 155t38.5 188.5t-38.5 188t-103.5 154.5t-155 103.5t-188 38.5v0zM697 221q0 -8 -5.5 -13t-13.5 -5h-328q-8 0 -13.5 5t-5.5 13v329q0 7 5.5 12.5t13.5 5.5h328q8 0 13.5 -5.5t5.5 -12.5v-329v0v0v0z
M695 222v0v0v0z" />
    <glyph glyph-name="built" unicode="&#xe610;" 
d="M512 -111q-101 0 -192.5 39t-158 105.5t-105.5 158t-39 192.5t39 192.5t105.5 158t158 105.5t192.5 39t192.5 -39t158 -105.5t105.5 -158t39 -192.5t-39 -192.5t-105.5 -158t-158 -105.5t-192.5 -39zM513.5 828q-90.5 0 -173 -35.5t-142 -95t-95 -142t-35.5 -173
t35.5 -173.5t95 -142.5t142 -95t173 -35.5t173.5 35.5t142.5 95t95 142.5t35.5 173.5t-35.5 173t-95 142t-142.5 95t-173.5 35.5zM537 409v198q0 10 -7.5 17.5t-17.5 7.5t-17.5 -7.5t-7.5 -17.5v-198h-198q-10 0 -17.5 -7.5t-7.5 -17.5t7.5 -17.5t17.5 -7.5h198v-198
q0 -10 7.5 -17.5t17.5 -7.5t17.5 7.5t7.5 17.5v198h198q10 0 17.5 7.5t7.5 17.5t-7.5 17.5t-17.5 7.5h-198z" />
    <glyph glyph-name="type" unicode="&#xe648;" 
d="M257.5 864q-93.5 0 -159.5 -66t-66 -159.5t66 -159.5t159.5 -66t159.5 66t66 159.5t-66 159.5t-159.5 66zM257.5 461q-73.5 0 -125.5 52t-52 125.5t52 125.5t125.5 52t125.5 -52t52 -125.5t-52 -125.5t-125.5 -52zM766.5 413q93.5 0 159.5 66t66 159.5t-66 159.5
t-159.5 66t-159.5 -66t-66 -159.5t66 -159.5t159.5 -66zM766.5 816q73.5 0 125.5 -52t52 -125.5t-52 -125.5t-125.5 -52t-125.5 52t-52 125.5t52 125.5t125.5 52zM257.5 355q-93.5 0 -159.5 -66t-66 -159.5t66 -159.5t159.5 -66t159.5 66t66 159.5t-66 159.5t-159.5 66z
M257.5 -48q-73.5 0 -125.5 52t-52 125.5t52 125.5t125.5 52t125.5 -52t52 -125.5t-52 -125.5t-125.5 -52zM766.5 355q-93.5 0 -159.5 -66t-66 -159.5t66 -159.5t159.5 -66t159.5 66t66 159.5t-66 159.5t-159.5 66zM766.5 -48q-73.5 0 -125.5 52t-52 125.5t52 125.5t125.5 52
t125.5 -52t52 -125.5t-52 -125.5t-125.5 -52z" />
    <glyph glyph-name="add-3" unicode="&#xe602;" 
d="M912 738v149h-912v-875h130v-131h894v857h-112zM37 49v800h838v-111h-745v-689h-93zM987 -81h-819v782h819v-782zM782 328h-186v186v0q0 8 -5.5 13.5t-13.5 5.5t-13 -5.5t-5 -13.5v0v-186h-187q-7 0 -12.5 -5.5t-5.5 -13t5.5 -13t12.5 -5.5h187v-186v0q0 -8 5 -13.5
t13 -5.5t13.5 5.5t5.5 13.5v0v186h186q8 0 13.5 5.5t5.5 13t-5.5 13t-13.5 5.5z" />
    <glyph glyph-name="calendar" unicode="&#xe611;" 
d="M757 817q-6 29 -31 49.5t-55 20.5q-7 0 -12.5 -5t-5.5 -12.5t5.5 -12.5t12.5 -5q22 0 37.5 -15.5t15.5 -37.5t-15.5 -37.5t-37.5 -15.5q-7 0 -12.5 -5t-5.5 -12.5t5.5 -12.5t12.5 -5q30 0 55 20.5t31 49.5h232v-159h-954v159h300q8 0 13 5.5t5 12.5t-5 12.5t-13 5.5h-32
q6 14 20.5 24.5t29.5 10.5q22 0 37.5 -15.5t15.5 -37.5t-15.5 -37.5t-37.5 -15.5q-7 0 -12.5 -5t-5.5 -12.5t5.5 -12.5t12.5 -5q37 0 62.5 25.5t25.5 62t-25.5 62.5t-62.5 26q-30 0 -55 -20.5t-31 -49.5h-267v-936h1024v936h-267zM989 -84h-954v671h954v-671zM459 852
q22 0 37.5 -15.5t15.5 -37.5t-15.5 -37.5t-37.5 -15.5q-7 0 -12.5 -5t-5.5 -12.5t5.5 -12.5t12.5 -5q37 0 62.5 25.5t25.5 62t-25.5 62.5t-62.5 26q-7 0 -12.5 -5t-5.5 -12.5t5.5 -12.5t12.5 -5zM565 852q22 0 37.5 -15.5t15.5 -37.5t-15.5 -37.5t-37.5 -15.5q-7 0 -12.5 -5
t-5.5 -12.5t5.5 -12.5t12.5 -5q36 0 62 25.5t26 62t-26 62.5t-62 26q-7 0 -12.5 -5t-5.5 -12.5t5.5 -12.5t12.5 -5zM229.5 305q43.5 0 74.5 31t31 74.5t-31 74.5t-74.5 31t-74.5 -31t-31 -74.5t31 -74.5t74.5 -31zM229.5 481q29.5 0 50 -20.5t20.5 -50t-20.5 -50t-50 -20.5
t-50 20.5t-20.5 50t20.5 50t50 20.5zM512 305q44 0 75 31t31 74.5t-31 74.5t-75 31t-75 -31t-31 -74.5t31 -74.5t75 -31zM512 481q29 0 50 -20.5t21 -50t-21 -50t-50 -20.5t-50 20.5t-21 50t21 50t50 20.5zM794.5 305q43.5 0 74.5 31t31 74.5t-31 74.5t-74.5 31t-74.5 -31
t-31 -74.5t31 -74.5t74.5 -31zM794.5 481q29.5 0 50 -20.5t20.5 -50t-20.5 -50t-50 -20.5t-50 20.5t-20.5 50t20.5 50t50 20.5zM229.5 22q43.5 0 74.5 31t31 75t-31 75t-74.5 31t-74.5 -31t-31 -75t31 -75t74.5 -31zM229.5 199q29.5 0 50 -21t20.5 -50t-20.5 -50t-50 -21
t-50 21t-20.5 50t20.5 50t50 21zM512 22q44 0 75 31t31 75t-31 75t-75 31t-75 -31t-31 -75t31 -75t75 -31zM512 199q29 0 50 -21t21 -50t-21 -50t-50 -21t-50 21t-21 50t21 50t50 21zM794 40zM777 39.5q0 -7.5 5 -12.5t12.5 -5t12.5 5t5 12.5t-5 12.5t-12.5 5t-12.5 -5
t-5 -12.5zM724 57zM706 57.5q0 -7.5 5.5 -12.5t12.5 -5t12.5 5t5.5 12.5t-5.5 12.5t-12.5 5t-12.5 -5t-5.5 -12.5zM865 57zM847 57.5q0 -7.5 5.5 -12.5t12.5 -5t12.5 5t5.5 12.5t-5.5 12.5t-12.5 5t-12.5 -5t-5.5 -12.5zM865 199zM847 198.5q0 -7.5 5.5 -12.5t12.5 -5
t12.5 5t5.5 12.5t-5.5 12.5t-12.5 5t-12.5 -5t-5.5 -12.5zM724 199zM706 198.5q0 -7.5 5.5 -12.5t12.5 -5t12.5 5t5.5 12.5t-5.5 12.5t-12.5 5t-12.5 -5t-5.5 -12.5zM759 163zM742 163.5q0 -7.5 5 -12.5t12 -5t12.5 5t5.5 12.5t-5.5 12.5t-12.5 5t-12 -5t-5 -12.5zM830 163z
M812 163.5q0 -7.5 5 -12.5t12.5 -5t12.5 5t5 12.5t-5 12.5t-12.5 5t-12.5 -5t-5 -12.5zM794 128zM777 128q0 -7 5 -12.5t12.5 -5.5t12.5 5.5t5 12.5t-5 12.5t-12.5 5.5t-12.5 -5.5t-5 -12.5zM759 93zM742 92.5q0 -7.5 5 -12.5t12 -5t12.5 5t5.5 12.5t-5.5 12.5t-12.5 5
t-12 -5t-5 -12.5zM830 93zM812 92.5q0 -7.5 5 -12.5t12.5 -5t12.5 5t5 12.5t-5 12.5t-12.5 5t-12.5 -5t-5 -12.5zM883 128zM865 128q0 -7 5 -12.5t12.5 -5.5t12.5 5.5t5 12.5t-5 12.5t-12.5 5.5t-12.5 -5.5t-5 -12.5zM706 128zM689 128q0 -7 5 -12.5t12.5 -5.5t12.5 5.5
t5 12.5t-5 12.5t-12.5 5.5t-12.5 -5.5t-5 -12.5zM794 216zM777 216.5q0 -7.5 5 -12.5t12.5 -5t12.5 5t5 12.5t-5 12.5t-12.5 5t-12.5 -5t-5 -12.5z" />
    <glyph glyph-name="edit" unicode="&#xe61d;" 
d="M978 804l-46 46q-14 14 -33.5 14t-33.5 -14l-50 -50h-783v-896h896v782l50 51q14 14 14 33.5t-14 33.5zM353 276l51 -51l-71 -20zM865 669l-68 68l23 22l67 -68zM842 646l-407 -407l-68 68l407 407zM896 655v-719h-832v832h719l-453 -453l-34 -124l-19 -20
q-5 -5 -5 -11.5t4.5 -11t11.5 -4.5t11 4l20 20l124 34zM955 759l-45 -45l-68 68l46 45q4 5 10.5 5t11.5 -5l45 -45q5 -5 5 -11.5t-5 -11.5z" />
    <glyph glyph-name="data" unicode="&#xe628;" 
d="M453 717l-86 119h-367v-904h1024v785h-571zM990 683v-86h-452l-61 86h513zM34 -34v836h316l85 -119v0l80 -112q5 -7 14 -7v-1h461v-597h-956zM324 375h239v0q7 0 12 5t5 12.5t-5 12.5t-12 5v0h-239v0q-7 0 -12 -5t-5 -12.5t5 -12.5t12 -5v0zM700 307h-376v0q-7 0 -12 -5
t-5 -12t5 -12t12 -5v0h376v0q7 0 12 5t5 12t-5 12t-12 5v0zM700 205h-376v0q-7 0 -12 -5t-5 -12t5 -12t12 -5v0h376v0q7 0 12 5t5 12t-5 12t-12 5v0z" />
    <glyph glyph-name="delete" unicode="&#xe630;" 
d="M512 34v0q7 0 11.5 5t4.5 11v0v537v0q0 7 -4.5 12t-11.5 5t-11.5 -5t-4.5 -12v0v-537q0 -6 4.5 -11t11.5 -5v0zM349 34q7 0 12 5t5 11v0v537v0q0 7 -5 12t-11.5 5t-11.5 -5t-5 -12v0v-537q0 -6 5 -11t11 -5v0zM675 34v0q6 0 11 5t5 11v0v537v0q0 7 -5 12t-11.5 5
t-11.5 -5t-5 -12v0v-537q0 -6 5 -11t12 -5v0zM886 766h-228q-5 51 -30 77q-20 21 -51 21h-163q-30 0 -51 -21q-25 -26 -29 -77h-196q-7 0 -12 -4.5t-5 -11.5t5 -11.5t12 -4.5h33l31 -749q1 -28 20 -54.5t60 -26.5h460q41 0 60 26t20 55l31 749h33q7 0 12 4.5t5 11.5t-5 11.5
t-12 4.5zM387 820q10 11 27 11h163q17 0 28 -11q16 -16 20 -54h-259q4 38 21 54zM789 -14q0 -5 -1 -10.5t-5 -15.5t-14.5 -16.5t-26.5 -6.5h-460q-15 0 -25.5 6.5t-15 16.5t-5.5 15.5t-1 10.5l-31 748h616z" />
    <glyph glyph-name="home" unicode="&#xe634;" 
d="M1015 429l-152 141v232h-176v-69l-175 163l-503 -467q-5 -5 -5 -12.5t5 -12.5t12 -5t12 4l58 54v-585h842v585l58 -54q5 -5 12 -5v0q8 0 13 5.5t5 12.5q0 8 -6 13zM723 767h105v-164l-105 98v66zM407 -93v370q0 6 4.5 11t11.5 5h178q7 0 11.5 -5t4.5 -11v-370h-210z
M898 -93h-246v370q0 21 -15 36t-36 15h-178q-21 0 -36 -15t-15 -36v-370h-246v583l386 358l251 -233l100 -93l35 -32v-583z" />
    <glyph glyph-name="locked-1" unicode="&#xe63c;" 
d="M728 483v205q0 86 -66 147t-159 61t-159 -61t-66 -147v-58q0 -8 5.5 -13t13 -5t12.5 5t5 13v58q0 71 55.5 121.5t133.5 50.5t133.5 -50.5t55.5 -121.5v-205h-575v-611h790v611h-179zM871 -92h-718v72h718v-72zM153 16v431h718v-431h-718zM512 339q-30 0 -51 -21t-21 -51
v-108q0 -29 21 -50t51 -21t51 21t21 50v108q0 30 -21 51t-51 21zM548 159q0 -14 -10.5 -24.5t-25.5 -10.5t-25.5 10.5t-10.5 24.5v108q0 15 10.5 25.5t25.5 10.5t25.5 -10.5t10.5 -25.5v-108z" />
    <glyph glyph-name="lock" unicode="&#xe63e;" 
d="M796 506v100q0 107 -83 182.5t-201 75.5t-201 -75.5t-83 -182.5v-100q-46 -7 -76.5 -43t-30.5 -83v-348q0 -53 37.5 -90.5t90.5 -37.5h526q53 0 90.5 37.5t37.5 91.5v347q0 47 -30.5 83t-76.5 43zM263 606q0 92 73 157t176 65t176 -65t73 -157v-98h-498v98zM868 33
q0 -39 -27.5 -66t-65.5 -27h-526q-38 0 -65.5 27t-27.5 66v347q0 38 27.5 65.5t65.5 27.5h526q38 0 65.5 -27.5t27.5 -65.5v-347zM512 366q-29 0 -50 -20.5t-21 -50.5v-107q0 -29 21 -50t50 -21t50 21t21 50v107q0 30 -21 50.5t-50 20.5zM548 188q0 -14 -10.5 -24.5
t-25.5 -10.5t-25.5 10.5t-10.5 24.5v107q0 15 10.5 25.5t25.5 10.5t25.5 -10.5t10.5 -25.5v-107z" />
    <glyph glyph-name="power" unicode="&#xe65c;" 
d="M646 804q-3 1 -5 1q-8 0 -13.5 -5.5t-5.5 -13.5q0 -13 13 -17q140 -41 228 -158.5t88 -263.5q0 -89 -35 -170t-93.5 -140t-140 -93.5t-170.5 -34.5t-170.5 34.5t-140 93.5t-93.5 140t-35 170q0 146 88.5 263.5t227.5 158.5q13 4 13 17q0 8 -5.5 13.5t-12.5 5.5
q-3 0 -5 -1q-151 -44 -246.5 -171.5t-95.5 -285.5q0 -96 37.5 -184t101 -152t151.5 -101.5t185 -37.5t185 37.5t151.5 101.5t101 152t37.5 184q0 158 -95 285.5t-246 171.5zM512 402v0q8 0 13 5.5t5 13.5v457q0 7 -5 12.5t-13 5.5t-13 -5.5t-5 -12.5v-457v0q0 -8 5 -13.5
t13 -5.5z" />
    <glyph glyph-name="settings-6" unicode="&#xe665;" 
d="M512 649q-110 0 -187.5 -77.5t-77.5 -187.5t77.5 -187.5t187.5 -77.5t187.5 77.5t77.5 187.5t-77.5 187.5t-187.5 77.5zM512 156q-94 0 -161 67t-67 161t67 161t161 67t161 -67t67 -161t-67 -161t-161 -67zM971 498h-38q-26 93 -87 166l71 -36q16 16 16 37v1q0 21 -16 37
l-86 86q-15 15 -37.5 15t-37.5 -15l-27 -27q-81 47 -176 56l73 25q0 22 -15.5 37.5t-37.5 15.5h-122q-22 0 -37.5 -15.5t-15.5 -37.5v-38q-94 -26 -166 -87l36 71q-15 15 -37.5 15t-37.5 -15l-86 -86q-16 -16 -16 -37v0q0 -22 16 -38l27 -27q-47 -80 -56 -176l-25 73
q-22 0 -37.5 -15.5t-15.5 -37.5v-122q0 -22 15.5 -37.5t37.5 -15.5h38q26 -94 87 -166l-71 36q-16 -16 -16 -37v-1q0 -21 16 -37l86 -86q15 -15 37.5 -15t37.5 15l27 27q81 -48 177 -56l-74 -25q0 -22 15.5 -37.5t37.5 -15.5h122q22 0 37.5 15.5t15.5 37.5v38q94 26 166 87
l-36 -71q15 -15 37.5 -15t37.5 15l86 86q16 16 16 37v0q0 22 -16 38l-27 27q48 81 56 177l25 -74q22 0 37.5 15.5t15.5 37.5v122q0 22 -15.5 37.5t-37.5 15.5zM986 323q0 -6 -4.5 -10.5t-10.5 -4.5h-68l-3 -14q-23 -95 -85 -168l27 35l48 -48q5 -4 5 -10.5t-5 -10.5l-86 -86
q-4 -5 -10.5 -5t-10.5 5l-48 48l-13 -8q-79 -51 -175 -59l41 6v-68q0 -6 -4.5 -10.5t-10.5 -4.5h-122q-6 0 -10.5 4.5t-4.5 10.5v68l-15 3q-94 23 -167 85l35 -27l-48 -48q-4 -5 -10.5 -5t-10.5 5l-86 86q-5 4 -5 10.5t5 10.5l48 48l-8 13q-51 79 -59 175l6 -41h-68
q-6 0 -10.5 4.5t-4.5 10.5v122q0 6 4.5 10.5t10.5 4.5h68l3 15q23 94 85 167l-27 -35l-48 48q-5 4 -5 10.5t5 10.5l86 86q4 5 10.5 5t10.5 -5l48 -48l13 8q79 51 175 59l-41 -6v68q0 6 4.5 10.5t10.5 4.5h122q6 0 10.5 -4.5t4.5 -10.5v-68l14 -3q95 -23 168 -85l-35 27
l48 48q4 5 10.5 5t10.5 -5l86 -86q5 -4 5 -10.5t-5 -10.5l-48 -48l8 -13q51 -79 59 -175l-6 41h68q6 0 10.5 -4.5t4.5 -10.5v-122zM512 574q-78 0 -134 -56t-56 -134t56 -134t134 -56t134 56t56 134t-56 134t-134 56zM512 232q-63 0 -107.5 44.5t-44.5 107.5t44.5 107.5
t107.5 44.5t107.5 -44.5t44.5 -107.5t-44.5 -107.5t-107.5 -44.5z" />
    <glyph glyph-name="settings-5" unicode="&#xe666;" 
d="M943 491h-90q-23 0 -32 21t7 38l64 63q14 14 14 35v0q0 20 -14 35l-81 81q-14 14 -35 14t-35 -14l-63 -64q-17 -16 -38 -7q-21 8 -21 31v1v90q0 20 -14.5 34.5t-35.5 14.5h-114q-21 0 -35.5 -14.5t-14.5 -34.5v-90q0 -23 -21 -32t-38 7l-63 64q-14 14 -35 14t-35 -14
l-81 -81q-14 -14 -14 -35v0q0 -20 14 -35l64 -63q16 -17 7 -38t-32 -21h-90q-20 0 -34.5 -14.5t-14.5 -35.5v-114q0 -21 14.5 -35.5t34.5 -14.5h90q23 0 32 -21t-7 -38l-64 -63q-14 -14 -14 -35v0q0 -20 14 -35l81 -81q14 -14 35 -14t35 14l63 64q10 10 25 10q7 0 13 -3
q21 -9 21 -32v-90q0 -20 14.5 -34.5t35.5 -14.5h114q21 0 35.5 14.5t14.5 34.5v90q0 23 21 32q6 3 13 3q15 0 24 -10l64 -64q14 -14 35 -14t35 14l81 81q14 14 14 35v0q0 20 -14 35l-64 63q-16 17 -7 38t32 21h90q20 0 34.5 14.5t14.5 35.5v114q0 21 -14.5 35.5t-34.5 14.5z
M956 327q0 -6 -4 -10t-9 -4h-90h-1q-21 0 -38.5 -12t-25.5 -31q-5 -13 -5 -27q0 -29 20 -50l64 -63q4 -4 4 -10t-4 -10l-81 -81q-4 -4 -10 -4t-10 4l-63 64q-33 33 -77 15q-19 -8 -31 -25.5t-12 -38.5v-1v-90q0 -5 -4 -9t-10 -4h-114q-6 0 -10 4t-4 9v90v1q0 21 -12 38.5
t-31 25.5q-13 5 -28 5q-28 0 -49 -20l-63 -64q-4 -4 -10 -4t-10 4l-81 81q-4 4 -4 10t4 10l64 63q20 21 20 50q0 14 -5 27q-8 19 -25.5 31t-38.5 12h-1h-90q-5 0 -9 4t-4 10v114q0 6 4 10t9 4h90h1q21 0 38.5 12t25.5 31q5 13 5 27q0 29 -20 50l-64 63q-4 4 -4 10t4 10
l81 81q4 4 10 4t10 -4l63 -64q21 -20 50 -20q14 0 27 5q19 8 31 25.5t12 38.5v1v90q0 5 4 9t10 4h114q6 0 10 -4t4 -9v-90q0 -22 11.5 -39.5t31.5 -25.5q13 -5 27 -5q29 0 50 20l63 64q4 4 10 4t10 -4l81 -81q4 -4 4 -10t-4 -10l-64 -63q-20 -21 -20 -50q0 -14 5 -27
q8 -19 25.5 -31t38.5 -12h1h90v0q5 0 9 -4t4 -10v-114zM512 544q-66 0 -113 -47t-47 -113t47 -113t113 -47t113 47t47 113t-47 113t-113 47zM512 260q-51 0 -87.5 36.5t-36.5 87.5t36.5 87.5t87.5 36.5t87.5 -36.5t36.5 -87.5t-36.5 -87.5t-87.5 -36.5z" />
    <glyph glyph-name="unlock" unicode="&#xe67f;" 
d="M796 506v100q0 107 -83 182.5t-201 75.5t-201 -75.5t-83 -182.5v0q0 -7 5 -12.5t12.5 -5.5t12.5 5.5t5 12.5v0q0 92 73 157t176 65t176 -65t73 -157v-98h-512q-53 0 -90.5 -37.5t-37.5 -90.5v-347q0 -54 37.5 -91.5t90.5 -37.5h526q53 0 90.5 37.5t37.5 91.5v347
q0 47 -30.5 83t-76.5 43zM868 33q0 -39 -27.5 -66t-65.5 -27h-526q-38 0 -65.5 27t-27.5 66v347q0 38 27.5 65.5t65.5 27.5h526q38 0 65.5 -27.5t27.5 -65.5v-347zM512 366q-29 0 -50 -20.5t-21 -50.5v-107q0 -29 21 -50t50 -21t50 21t21 50v107q0 30 -21 50.5t-50 20.5z
M548 188q0 -14 -10.5 -24.5t-25.5 -10.5t-25.5 10.5t-10.5 24.5v107q0 15 10.5 25.5t25.5 10.5t25.5 -10.5t10.5 -25.5v-107z" />
    <glyph glyph-name="user-3" unicode="&#xe682;" 
d="M992 384q0 98 -38 186.5t-102.5 153t-153.5 102.5t-186.5 38t-186 -38t-153 -102.5t-102.5 -153t-38 -186.5q0 -103 41.5 -194.5t114.5 -159.5h-1l16 -13l1.5 -1l1.5 -1q11 -10 26 -20q5 -4 8 -6q14 -10 29 -18q2 -2 6 -4q76 -44 165 -58l-130 40q82 -39 176 -44l-56 6
q20 -3 38 -5h2.5h2.5q21 -2 39 -2q17 0 39 2h5q41 4 80 14l-39 -8q93 17 170 66l-52 -29q86 41 148 109l-21 -24q25 24 53 61l-103 -101v0q12 9 22 18q1 0 2.5 1.5t2.5 1.5l16 14v0q74 67 115.5 159.5t41.5 195.5zM67 384q0 90 35.5 172.5t95 142t142 95t172.5 35.5
t172.5 -35.5t142 -95t95 -142t35.5 -172.5q0 -97 -40 -183.5t-110 -149.5q-23 16 -50 22l-113 62q-22 10 -22 34v0v52q5 6 11 14q50 71 62 157q4 -39 12 -36t8 26v0v62q0 23 -15 41v82q5 58 -33 102q-49 55 -155 55t-155 -55q-39 -44 -33 -102v-82q-15 -17 -15 -41v-62
q0 -30 23 -49q16 -61 54 -112v-50v0q0 -23 -20 -34l-138 -76q-24 -13 -40 -34q-57 95 -89 181t-32 176zM773 24q-9 -7 -19 -13q-6 -4 -8 -5q-13 -8 -25 -15l-4 -2l-2 -1q-73 -38 -158 -47l95 21q-17 -6 -34 -10v0q-44 -11 -95 -13l60 6q-15 -3 -33 -4q-1 0 -5 -1
q-18 -1 -33 -1q-18 0 -36 2h-3q-36 3 -70 11l36 -7q-67 11 -125 40l55 -22q-71 24 -128 68l95 -56q-76 34 -134 90l100 -73q-80 43 -136 112l22 -26q-22 23 -45 58l100 -106l2 1l138 75q38 21 38 65v0v63l-4 5q-3 3 -10.5 14t-21.5 38.5t-20 55.5l-2 7l-6 4q-13 8 -13 24v62
q0 13 9 21l6 6v97v2q1 3 0 12.5t5 29t19 34.5q38 43 129 43q90 0 128 -43q29 -32 25 -76v-100l5 -5q10 -8 10 -21v-62q0 -21 -20 -27l-9 -3l-3 -9q-25 -78 -83 -134l27 30v0l-5 -5v-65q0 -21 11 -38.5t30 -27.5l151 -75q-1 -1 -3.5 -2.5l-2.5 -1.5v0z" />
    <glyph glyph-name="users" unicode="&#xe685;" 
d="M939 121l-163 82q-10 5 -17.5 17t-7.5 23v0v58q6 7 12 16q33 46 51 99q16 8 27.5 26t11.5 36v0v68q0 25 -17 45v91q0 8 0.5 22.5t-8.5 41t-27 47.5q-53 60 -169.5 60t-169.5 -60q-30 -34 -35 -82q-44 23 -103 23q-49 0 -87 -16.5t-56 -36.5t-29 -46t-13 -37.5t-2 -17.5
v-78q-18 -18 -18 -40v-59q0 -28 23 -47q15 -58 62 -107v-47q0 -22 -20 -33l-113 -71q-30 -16 -50.5 -50.5t-20.5 -68.5v0v-64h1024v69v0q0 39 -25 79.5t-60 57.5zM239 -13v-38h-205v30q0 28 14.5 52t39.5 38l113 71q16 8 26.5 26.5t10.5 35.5v0v61l-5 5q-5 5 -13.5 14
t-24.5 35.5t-21 52.5l-2 7l-6 4q-12 8 -12 22v59q0 10 11 20l6 5v92q0 6 1.5 15t11 29.5t24 36t45.5 28t71 12.5q62 0 103 -28v-81q-17 -20 -17 -45v-68q0 -8 1 -15q1 -2 1.5 -4l0.5 -2q3 -7 3 -9v0q7 -14 19 -23v-1q2 -7 4 -12l1 -4q0 -1 0.5 -1.5t0.5 -1.5q1 -4 2 -5l3 -9
q0 -1 0.5 -2.5t1.5 -2.5l4 -10l0.5 -1l0.5 -1l1 -3l0.5 -1l0.5 -1q3 -7 5 -11l1 -2q1 -1 3 -6q7 -13 15 -26l2 -2q6 -9 11 -16l2 -3l1 -2v-56q0 -27 -24 -40l-45 -24h-8l-3 -6l-96 -53q-33 -18 -56.5 -57.5t-23.5 -77.5v0zM990 -51h-717v38v0q0 29 18.5 60t44.5 45l152 83
q17 10 29 30t12 40v0v68l-3 4l-1 1v0q-1 2 -3 4q-1 2 -3 4v1q-5 6 -10 13v1q-3 4 -5 8v1q-7 10 -12 22v0q-4 6 -7 13l-1 2q-1 3 -3 7l-1 3q-2 4 -2 7q-3 7 -5 14l-1 3l-1 1q-2 8 -4 17l-2 6l-5 4q-16 10 -16 29v68q0 15 11 25l6 5v113h-1q-2 47 28 82q43 48 143 48
q101 0 144 -48q31 -36 27 -86v-109l6 -5q11 -10 11 -25v-68q0 -25 -24 -33l-9 -2l-2 -9q-17 -52 -49 -97q-7 -11 -14 -19l-4 -4v-71q0 -22 11.5 -41.5t32.5 -29.5l163 -81q27 -14 46.5 -45t19.5 -62v0v-35z" />
    <glyph glyph-name="view" unicode="&#xe689;" 
d="M883 523q-76 76 -174.5 115.5t-198.5 39.5t-198.5 -39.5t-174.5 -115.5l-137 -137l141 -141q76 -76 172.5 -115t200 -39t200.5 39t173 115l137 137zM862 269q-94 -94 -221 -127.5t-254 0t-222 127.5l-116 117l113 113q94 94 221 127.5t254 0t222 -127.5l116 -117z
M494 523q-50 0 -85.5 -35.5t-35.5 -85.5q0 -7 5 -12t12.5 -5t12.5 5t5 12q0 36 25 61t61 25q7 0 12.5 5t5.5 12.5t-5.5 12.5t-12.5 5zM512 609q-93 0 -159 -65.5t-66 -158.5t66 -159t159 -66t158.5 66t65.5 159t-65.5 158.5t-158.5 65.5zM511.5 194q-78.5 0 -134.5 56
t-56 134.5t56 134.5t134.5 56t134.5 -56t56 -134.5t-56 -134.5t-134.5 -56z" />
    <glyph glyph-name="ready" unicode="&#xe7cb;" 
d="M975 582q-38 88 -105.5 156t-156.5 105q-91 39 -191 39t-191 -39q-88 -37 -156 -105t-106 -156q-38 -92 -38 -191.5t38 -191.5q38 -88 106 -156t156 -105q91 -39 191 -39t191 39q89 37 157 105t105 156q39 92 39 191.5t-39 191.5zM522.5 -50q-89.5 0 -171 35t-140.5 94
t-94 140.5t-35 171t35 171t94 140.5t140.5 94t171 35t170.5 -35t140 -94t94 -140.5t35 -171t-35 -171t-94 -140.5t-140 -94t-170.5 -35zM741 558v0q-8 7 -18.5 6.5t-17.5 -8.5l-244 -272l-126 112q-8 7 -18.5 6.5t-17.5 -8.5v0q-7 -8 -6.5 -18.5t8.5 -17.5l144 -129v0l1 -1
v0q7 -7 18 -6.5t18 8.5l261 292q7 7 6.5 18t-8.5 18z" />
    <glyph glyph-name="remove" unicode="&#xe669;" 
d="M850.5 718.5q-67.5 67.5 -154.5 103t-182.5 35.5t-182.5 -35.5t-154.5 -103t-103.5 -154t-36 -181.5t36 -182t103.5 -154t154.5 -102.5t182.5 -35.5t182.5 35.5t154.5 103t103.5 154t36 181.5t-36 181.5t-103.5 154zM752 349h-273v0h-204q-14 0 -24 10t-10 24t10 24
t24 10h477q14 0 24 -10t10 -24t-10 -24t-24 -10z" />
    <glyph glyph-name="start-spot" unicode="&#xe60e;" 
d="M989 390q0 -97 -38 -185.5t-101.5 -152.5t-152 -101.5t-185.5 -37.5t-185.5 37.5t-152 101.5t-101.5 152.5t-38 185.5t38 185.5t101.5 152t152 101.5t185.5 38t185.5 -38t152 -101.5t101.5 -152t38 -185.5zM512 758q-100 0 -184.5 -49.5t-134 -134t-49.5 -184.5
t49.5 -185t134 -134t184.5 -49t184.5 49t134 134t49.5 185t-49.5 184.5t-134 134t-184.5 49.5z" />
    <glyph glyph-name="product" unicode="&#xe671;" 
d="M404 469v292l-103 -102l-172 172l-87 -86l172 -173l-103 -103h293zM915 469l-104 103l172 172l-86 87l-173 -172l-102 103v-293h293zM833 28h-650v416h-74v-485h805v485h-82zM264 157h477v-34h-477v34zM264 242h477v-34h-477v34zM264 335h477v-34h-477v34z" />
    <glyph glyph-name="join" unicode="&#xe672;" 
d="M1007 393q0 11 -4.5 19.5t-9.5 11.5l-4 3l-269 183q-9 3 -19 4h-3q-6 0 -9 -1q-7 -1 -11 -4.5t-5 -6.5v-3v-104h-325l-141 145h-193l218 -250l-218 -256l198 1l137 148h324v-110q-1 -8 15 -11q6 -2 11 0q6 -1 11.5 0t7.5 2l3 1l268 183q19 10 19 35q0 2 -0.5 5.5
t-0.5 4.5z" />
    <glyph glyph-name="starjoin" unicode="&#xe674;" 
d="M999 384q0 11 -5 20t-9 12l-5 3l-270 185q-1 0 -2.5 0.5t-6.5 2t-10 0.5h-7h-8q-7 -2 -11 -5t-5 -5l-1 -2v-109h-158l-133 149h-113l121 -149h-83l-142 149h-116l128 -153h-127v-208h623v-111q1 -8 17 -11q2 -1 7 -1h8q5 0 10 1t7 2l2 1l270 184q19 10 19 35q0 1 -0.5 3
t-0.5 3l0.5 1.5t0.5 2.5z" />
    <glyph glyph-name="lookup" unicode="&#xe675;" 
d="M1000 324q0 11 -4.5 20t-9.5 12l-4 4l-274 186q-10 4 -20 4h-2h-10q-7 -2 -11 -5.5t-4 -6.5l-1 -3v-126h-190l-94 69h80v0h43v292h-478v-292h42v0h146l92 -80h-277v-167h636v-131q-1 -8 15 -12q6 -1 11 0q6 -1 11.5 0t8.5 2l3 2l273 187q19 10 19 35q0 2 -0.5 5.5
t-0.5 4.5zM63 515v217h393v-217h-130v0h-159v0h-104zM111 677h302v-21h-302v21zM111 583h302v-21h-302v21z" />
    <glyph glyph-name="split" unicode="&#xe677;" 
d="M628 668l106 75l-59 83l306 -6l-84 -292l-65 85l-120 -75zM619 479l-82 129l70 46l82 -129zM628 99l106 -75l-59 -83l306 6l-84 292l-66 -84l-119 75zM619 288l-82 -129l70 -46l82 130zM477 609h-293l-146 -232l146 -233h293l146 233zM335.5 198q-72.5 0 -123.5 51
t-51 123t51 123.5t123.5 51.5t123.5 -51.5t51 -123.5t-51 -123t-123.5 -51z" />
    <glyph glyph-name="minus" unicode="&#xe67a;" 
d="M715 680q-118 0 -203 -81q-85 81 -203 81q-123 0 -209.5 -86.5t-86.5 -209.5t86.5 -209.5t209.5 -86.5q118 0 203 81q85 -81 203 -81q123 0 209.5 86.5t86.5 209.5t-86.5 209.5t-209.5 86.5zM308 125q-107 0 -183 76t-76 183.5t76 183.5t183 76q103 0 179 -71
q-24 -29 -39 -61q-56 61 -140 61q-78 0 -133 -55t-55 -133.5t55 -133.5t133 -55q83 0 140 61q15 -32 39 -61q-75 -71 -179 -71zM511 218q-59 66 -59 164.5t59 164.5q59 -66 59 -164q0 -100 -59 -165zM715 125q-103 0 -178 71q23 29 39 61q58 110 0 255q-16 32 -39 61
q75 71 178 71q108 0 183.5 -76t75.5 -183.5t-75.5 -183.5t-183.5 -76z" />
    <glyph glyph-name="intersect" unicode="&#xe67b;" 
d="M307.5 682q-122.5 0 -209.5 -87t-87 -210t87 -209.5t209.5 -86.5t209.5 86.5t87 209.5t-87 210t-209.5 87zM307.5 126q-107.5 0 -183.5 76t-76 183.5t76 183.5t183.5 76t183.5 -76t76 -183.5t-76 -183.5t-183.5 -76zM715 682q-123 0 -209.5 -87t-86.5 -210t86.5 -209.5
t209.5 -86.5t210 86.5t87 209.5t-87 210t-210 87zM715 126q-108 0 -183.5 76t-75.5 183.5t75.5 183.5t183.5 76t184 -76t76 -183.5t-76 -183.5t-184 -76zM511 285q-35 39 -35 97.5t35 97.5q35 -39 35 -97q0 -59 -35 -98z" />
    <glyph glyph-name="union" unicode="&#xe67c;" 
d="M715 680q-118 0 -203 -81q-85 81 -203 81q-123 0 -209.5 -86.5t-86.5 -209.5t86.5 -209.5t209.5 -86.5q118 0 203 81q85 -81 203 -81q123 0 209.5 86.5t86.5 209.5t-86.5 209.5t-209.5 86.5zM308 125q-107 0 -183 76t-76 183.5t76 183.5t183 76q103 0 179 -71
q-24 -29 -39 -61q-56 61 -140 61q-78 0 -133 -55t-55 -133.5t55 -133.5t133 -55q83 0 140 61q15 -32 39 -61q-75 -71 -179 -71zM511 218q-59 66 -59 164.5t59 164.5q59 -66 59 -164q0 -100 -59 -165zM511 285q-35 39 -35 97.5t35 97.5q35 -39 35 -97q0 -59 -35 -98zM715 125
q-103 0 -178 71q23 29 39 61q55 -61 139 -61q78 0 133.5 55t55.5 133.5t-55.5 133.5t-133.5 55q-82 0 -139 -61q-16 32 -39 61q75 71 178 71q108 0 183.5 -76t75.5 -183.5t-75.5 -183.5t-183.5 -76z" />
    <glyph glyph-name="arrow-right" unicode="&#xe7cc;" 
d="M762 415l-434 434q-14 14 -33 14t-32.5 -13.5t-13.5 -32.5t14 -33l401 -401l-398 -398q-14 -14 -14 -33t14 -32.5t33 -13.5t32 13l427 427l2 2l2 2q14 14 14 33t-14 32z" />
    <glyph glyph-name="arrow-left" unicode="&#xe7cd;" 
d="M262 353l434 -434q14 -14 33 -14t32.5 13.5t13.5 32.5t-14 33l-401 401l398 398q14 14 14 33t-14 32.5t-33 13.5t-32 -13l-427 -427l-2 -2l-2 -2q-14 -14 -14 -33t14 -32z" />
    <glyph glyph-name="source" unicode="&#xe680;" 
d="M191 858l-143 -146l169 -172l-110 -113h366v376l-114 -117zM240 -80h544q75 0 128 54.5t53 130.5v558q0 77 -53 131t-128 54h-132l-33 -44h165q57 0 97 -41t40 -100v-557q0 -59 -40 -100t-97 -41h-543q-57 0 -97 41t-40 100l-2 193l-43 -41l1 -153q0 -76 53 -130.5
t127 -54.5zM240 -90h544q79 0 135 57t56 138v558q0 81 -56 138t-135 57h-138l-48 -65h186q52 0 89 -38.5t37 -92.5v-557q0 -54 -37 -92.5t-89 -38.5h-544q-53 0 -90 38.5t-37 92.5l-1 217l-64 -59l2 -158q0 -82 57 -140q55 -55 133 -55z" />
    <glyph glyph-name="arrow-top" unicode="&#xe7ce;" 
d="M481 634l-434 -434q-14 -14 -14 -33t13.5 -32.5t32.5 -13.5t33 14l401 401l398 -398q14 -14 33 -14t32.5 14t13.5 33t-13 32l-427 427l-2 2l-2 2q-14 14 -33 14t-32 -14z" />
    <glyph glyph-name="pane" unicode="&#xe681;" 
d="M871 874h-717q-55 0 -93 -38t-38 -92v-718q0 -54 38 -92t93 -38h717q55 0 93 38t38 92v718q0 54 -38.5 92t-92.5 38z" />
    <glyph glyph-name="dataflow" unicode="&#xe684;" 
d="M86 -30q-13 0 -22 9t-9 22v751q0 13 9 22t22 9t22 -9t9 -22v-720h803q13 0 22 -9t9 -22t-9 -22t-22 -9h-834zM168 51l339 539l72 -191l304 371l-348 -645l-81 209zM828 -72l32 74l-32 74l176 -74zM162 691l-74 31l-74 -31l74 175z" />
    <glyph glyph-name="streamflow" unicode="&#xe686;" 
d="M512 42q-88 0 -151 63t-63 151q0 10 -5.5 16t-15.5 6t-15.5 -6t-5.5 -16q0 -106 75 -181t181 -75q10 0 16 6t6 15.5t-6 15t-16 5.5zM819 417q-12 -23 -27 -47q18 -57 18 -103q0 -128 -87.5 -218.5t-210.5 -90.5t-210.5 90.5t-87.5 218.5q0 57 28.5 132.5t70 144t85 128
t75.5 95t39 35.5t35 -31t71 -88t80 -117q5 6 14 19.5t12 17.5q-62 99 -127.5 175t-84.5 76q-13 0 -51.5 -39t-87 -105t-94.5 -141.5t-77.5 -161t-31.5 -151.5q0 -92 46 -171t125 -125t171 -46t171 46t125 125t46 171q0 70 -35 161zM348 165l272 433l57 -153l245 297
l-280 -517l-64 168z" />
    <glyph glyph-name="workflow2" unicode="&#xe688;" 
d="M761 753h-95q-15 51 -57.5 83.5t-96.5 32.5t-96.5 -32.5t-57.5 -83.5h-95q-74 0 -126.5 -52t-52.5 -126v-498q0 -74 52.5 -126t126.5 -52h498q74 0 126 52t52 126v498q0 74 -52 126t-126 52zM886 77q0 -52 -36.5 -88.5t-88.5 -36.5h-498q-52 0 -88.5 36.5t-36.5 88.5v498
q0 52 36.5 88.5t88.5 36.5h95q18 0 32 10.5t19 27.5q9 34 38 56t64 22q37 0 65 -22q29 -22 38 -56q5 -17 19 -27.5t32 -10.5h95q52 0 88.5 -36.5t36.5 -88.5v-498h1zM451 708.5q0 -25.5 18 -43.5t43 -18t43 18t18 43.5t-18 43.5t-43 18t-43 -18t-18 -43.5zM169 15l303 482
l65 -171l271 331l-311 -576l-72 187z" />
    <glyph glyph-name="nifi" unicode="&#xe68a;" 
d="M623 264q137 0 205 -1q-3 104 -53 197q-32 58 -108 149q-83 98 -111 144q-25 42 -39 82q-3 11 -4 11q-5 8 -12 -6q-3 -6 -10 -17t-11 -17q-27 -44 -40 -67q-23 -39 -75.5 -104.5t-64.5 -83.5q-82 -112 -107 -216q-27 -111 15 -206q40 -91 127 -141q42 -25 90 -36
q26 -7 50 -9q16 -1 24 -1h3q4 0 5 4v11v188l116 -1v120zM354 14v-3q-24 4 -52 32q-18 19 -39 50q-45 65 -53 137q-13 109 67 245q16 27 37 58l30 39q17 -4 24 -5q-67 -129 -92 -215q-37 -130 -2 -225q24 -63 80 -113zM388 595l-21 5q2 5 4 8l21 27q6 9 19.5 27.5t20.5 27.5
q-42 -91 -44 -95zM750 240h-103l2 -103h99l2 4v99zM784 240v-103h51q12 16 17 51q3 15 3.5 27.5t0.5 17.5v5zM530 18h100v103h-100v-103zM664 103v-103h91q1 0 2.5 0.5t4.5 3.5t3 10q1 6 1 89h-102zM843 60q5 6 9 15.5t6 15l2 5.5h-49v-75q22 23 32 39zM530 -85q24 -1 51 4
q12 3 24.5 6.5t18.5 5.5l6 3v53h-100v-72zM671 -85q21 7 35 16q5 3 14 8t15 9t11 8l-75 4v-45z" />
    <glyph glyph-name="parallel" unicode="&#xe68b;" 
d="M559 -9v360h169q0 35 -2 54h-167v358h166q0 34 1 51h-193q-10 0 -17.5 -8t-7.5 -18v-386h-189q-9 43 -43 71.5t-79 28.5q-51 0 -87.5 -36.5t-36.5 -87.5t36.5 -87.5t87.5 -36.5q44 0 77.5 27.5t44.5 69.5h188v-386q0 -10 7.5 -17.5t17.5 -7.5h198q0 34 1 51h-172v0z
M946 876q-9 8 -18.5 8t-17.5 -8l-87 -100l-32 39q-7 8 -18.5 8t-18.5 -8q-7 -7 -7 -18.5t7 -19.5l51 -59l3 -3q2 -2 3 -2l4 -3q7 -2 10 -2q4 0 9 2l4 3q1 0 4 2l104 124q6 7 6 18t-6 19zM946 471q-9 9 -18.5 9t-17.5 -9l-87 -99l-32 39q-7 8 -18.5 8t-18.5 -8t-7 -19t7 -19
l51 -59l3 -3h1q2 -2 3 -2l3 -1l1 -2q7 -2 10 -2q5 0 10 2l2 3q1 0 4 2l104 124q6 7 6 18t-6 18zM946 62q-9 9 -18.5 9t-17.5 -9l-87 -99l-32 39q-7 8 -18.5 8t-18.5 -8t-7 -19t7 -19l50 -59l1 -2q4 -3 5 -3l2 -1l2 -2q7 -2 9 -2q5 0 10 2l3 3q1 0 3 2l107 124q6 7 6 18
t-6 18z" />
    <glyph glyph-name="exclusive" unicode="&#xe68c;" 
d="M553 -12v361h168q0 35 -1 53h-167v358h130q0 34 1 51h-157q-10 0 -17.5 -7.5t-7.5 -17.5v-386h-190q-8 43 -42 71t-79 28q-51 0 -87.5 -36.5t-36.5 -87t36.5 -87t87.5 -36.5q44 0 77.5 27t43.5 70h189v-386q0 -11 7.5 -18.5t17.5 -7.5h161q0 34 2 51h-136v0zM819 782
l36 36q7 8 7 16q0 11 -7 16q-6 6 -16 6t-17 -6l-36 -36l-37 36q-6 6 -15.5 6t-16.5 -6q-8 -7 -8 -16q0 -10 8 -16l36 -36l-36 -36q-8 -8 -8 -16q0 -10 8 -16q6 -6 15.5 -6t16.5 6l37 37l36 -37q7 -7 16 -7q10 0 16 7q7 7 7 16q0 10 -7 16zM819 -38l36 36q7 7 7 16
q0 10 -7 16q-6 6 -16 6t-17 -6l-36 -37l-37 37q-6 6 -15.5 6t-16.5 -6q-8 -8 -8 -16q0 -10 8 -16l36 -36l-36 -37q-7 -6 -7 -15.5t7 -17.5q7 -7 15 -7q11 0 16 7l37 37l36 -37q6 -6 15.5 -6t17.5 6q6 7 6 16.5t-6 16.5zM950 475q-9 9 -18.5 9t-18.5 -9l-86 -99l-33 38
q-7 9 -18 9t-18 -9q-7 -7 -7 -18t7 -19l50 -60l1 -1q3 -4 5 -4l3 -2q8 -2 10 -2q4 0 11 2l2 2q2 0 4 3l107 124q6 7 6 18t-7 18z" />
    <glyph glyph-name="merge" unicode="&#xe68d;" 
d="M341 343q50 -68 81 -102q-31 -36 -64.5 -64.5t-81.5 -57.5t-112 -45t-138 -16v152q59 0 107 12.5t84 36.5t60 47.5t50 56.5q7 -9 14 -20zM503 459q30 -41 43 -58q26 29 44.5 46.5t50.5 42t70 38.5t80 16l-37 -93q-2 -6 3 -10q3 -2 6 -2t6 2l226 174q3 2 3 7t-3 8
l-227 173q-6 4 -11 0q-6 -4 -3 -11l38 -96q-57 -3 -109.5 -20t-96 -45.5t-71.5 -51.5t-60 -55q25 -32 48 -65zM780 345q-3 2 -6 2t-6 -2q-6 -4 -3 -11l37 -93q-50 3 -93 17.5t-73 32t-60 46.5t-48 51.5t-43 57.5q-20 27 -27.5 37.5t-29.5 38t-35.5 41t-39.5 37t-48 36
t-54.5 29.5t-65 25t-73.5 14t-86 6v-151q40 0 75.5 -6.5t62 -15t52.5 -25.5t42 -30t37 -37t31.5 -38t30.5 -42q4 -5 5 -7q21 -29 35.5 -47.5t40.5 -48t50 -50t59.5 -44t71.5 -38.5t84 -26t100 -14l-38 -96q-2 -6 3 -11q6 -4 11 0l226 174q4 3 4 8t-4 8z" />
  </font>
</defs>
</svg>
